<?xml version="1.0" encoding="utf-8"?>
<!-- Generator: Adobe Illustrator 23.0.3, SVG Export Plug-In . SVG Version: 6.00 Build 0)  -->
<svg version="1.1" id="Слой_1" xmlns="http://www.w3.org/2000/svg" xmlns:xlink="http://www.w3.org/1999/xlink" x="0px" y="0px"
	 viewBox="0 0 756 756" style="enable-background:new 0 0 756 756;" xml:space="preserve">
<g>
	<path d="M686.6,211.4c-1,3.7-1.8,7.4-2.9,11.1c-5.8,20.9-11.5,41.9-18.2,62.6c-4.4,13.7-9.1,27.3-15,40.4
		c-2.6,5.7-5.4,11.5-8.9,16.7c-3.6,5.3-8.1,9.8-12.3,14.7c-1.9,2.2-4.1,4.1-5.9,6.3c-5.1,6.3-11.8,10.2-19.1,13.3
		c-2,0.8-4,1.7-6,2.3c-2.1,0.7-3.6,2-4.7,3.9c-2,3.6-4,7.3-5.9,11c-3.5,7-7.2,13.9-11.6,20.4c-3.4,5.1-7.1,9.8-11.3,14.3
		c-6.4,6.9-12.8,13.9-19.4,20.6c-5.5,5.5-11.3,10.6-17,15.9c-6.3,5.9-12.7,11.7-19,17.7c-11.2,10.6-23,20.6-35.7,29.5
		c-0.9,0.6-1.7,1.2-2.5,1.8c-1.8,1.6-2.2,3.3-0.9,5.3c4.1,6.5,6.5,13.5,8,20.9c1.7,8.1,2.4,16.3,1.2,24.6c-0.4,3.3-1.3,6.4-3.4,9.1
		c-2.6,3.4-7.1,4.8-11.1,3.4c-1.9-0.6-3.8-1.4-5.6-2c-0.7-0.2-1.5-0.4-2.5-0.7c-0.2,0.9-0.3,1.6-0.4,2.3
		c-0.5,10.8-4.2,20.4-10.8,28.9c-1.1,1.4-2.3,2.9-3.5,4.3c-2,2.2-4.4,2.8-7.2,1.7c-0.4-0.2-0.9-0.4-1.4-0.5
		c-2.2-0.6-3.7-0.2-4.9,1.8c-0.7,1.1-1.2,2.4-1.9,3.6c-2.6,4.7-5,9.5-7.7,14.1c-7.4,12.3-17.4,21.9-30,28.6
		c-4.2,2.3-8.7,4.1-13.5,4.8c-4.3,0.6-7.3-1.2-8.7-5.4c-0.7-2.2-1.2-4.5-1.6-6.8c-0.8-4.3-1.7-8.6-3.3-12.8c-2-5.4-4.9-10-9.1-13.9
		c-2.1-2-3.9-4.2-5.5-6.6c-0.8-1.3-1.8-2.4-2.9-3.7c-1,0.7-1.7,1.2-2.5,1.7c-4.4,3-7.8,3-12.2,0.1c-3.1-2.1-5.6-4.8-7.7-7.9
		c-1.7-2.6-3.2-5.3-4.8-8c-1.1-1.9-1.3-2-3.4-1.4c-5.7,1.8-9.8,0.5-13-4.6c-1.5-2.4-2.8-5.1-3.7-7.8c-5.1-14.2-7.1-28.8-6.3-43.9
		c0.4-7.2,1.4-14.3,4.2-21.1c1.1-2.8,0.8-3.7-1.9-5.4c-2.1-1.3-4.3-2.4-6.5-3.6c-2.5-1.3-5.1-2.6-7.7-4
		c-22.4-12.3-41.8-28.3-58.7-47.4c-5.7-6.4-11.4-12.8-16.7-19.5c-7.6-9.6-14.4-19.8-20.9-30.2c-2.2-3.5-4.4-7.1-6.7-10.5
		c-1.5-2.2-3.2-4.4-4.9-6.5c-2.8-3.4-6.3-5.6-10.6-6.6c-11.2-2.7-20.3-8.9-28-17.1c-6.5-7-12.9-14.2-18.1-22.3
		c-5.4-8.5-9.3-17.7-12.7-27.1c-6.1-16.9-11.8-34-17.8-50.9c-3.3-9.5-6.9-18.9-10.3-28.4c-2-5.8-3.5-11.8-3.8-18
		c-0.3-4.7,1.5-8.4,5.2-11.2c4.5-3.3,9.5-5.3,14.8-6.4c12.1-2.5,24.3-3.9,36.7-3.5c7.6,0.2,15.2,0.4,22.8,1
		c11.2,0.9,22.3,3,33.3,5.5c3.9,0.9,7.8,1.6,11.7,2.5c3,0.6,5.3-0.3,7-2.9c0.4-0.6,0.8-1.2,1.2-1.8c4.9-7.6,9.7-15.2,14.8-22.7
		c10.3-15.2,21.2-29.9,34.5-42.6c10-9.6,21-17.7,32.5-25.4c7.9-5.3,16.2-10,24.9-13.9c7.6-3.4,15.6-5.2,23.6-7.1
		c7.7-1.9,15.5-3.2,23.4-4.1c1.7-0.2,3.5-0.2,5.3-0.3c0.8-0.1,1.5-0.3,2.3-0.4c1.9,0,3.8,0,5.8,0c0.9,0.1,1.7,0.4,2.6,0.4
		c9.2,0.4,18.4,0.6,27.6,1.1c9,0.5,18,1.5,26.8,3.5c21.7,4.9,42.5,12.3,61.7,23.7c10.5,6.2,20.2,13.5,28.9,22c1.9,1.9,3.6,4.1,5.5,6
		c6.3,6.6,12,13.7,16.8,21.5c3.6,5.8,7.1,11.6,10.6,17.4c2.8,4.6,6.2,8.7,9.8,12.7c1.3,1.5,2.9,2.3,4.9,2c2.2-0.3,4.4-0.6,6.6-1.3
		c19.5-6.1,39.2-11,59.6-12.8c12.2-1.1,24.3-0.7,36.3,1.9c3.8,0.8,7.6,1.8,11.1,3.6c3.4,1.7,5.9,4.3,7.2,7.9
		c0.3,0.9,0.6,1.8,0.9,2.7C686.6,206.3,686.6,208.9,686.6,211.4z M514.8,207.6c0.3-10.1-0.3-18.2-2.5-26.1
		c-3.5-12.9-11.3-22.4-22.8-28.9c-9.5-5.4-20-7.7-30.8-8.2c-5.5-0.3-11,0.1-16.5,0.4c-11.2,0.7-21.9,3.4-32,8.5
		c-6.7,3.4-13.4,6.7-20.2,10c-5.1,2.5-10.3,4.7-15.8,6.2c-2.7,0.7-5.1,0.4-7.6-1.1c-12.4-7.3-25.3-13.3-39.4-16.6
		c-5.8-1.3-11.8-2.4-17.7-3c-4.9-0.4-9.9,0.1-14.8,0.3c-6.4,0.3-12.6,1.7-18.8,3.5c-5.3,1.5-10.4,3.7-15,6.9
		c-11.6,8.2-20.2,18.8-25.7,31.9c-3.6,8.5-5.4,17.5-5.2,26.9c0.1,2.9-0.2,5.8-0.7,8.6c-0.9,5.1-3.9,9-7.3,12.7
		c-3.8,4.2-7.7,8.3-11.3,12.7c-6.8,8.2-13.3,16.5-19.1,25.5c-5.5,8.6-10.5,17.4-14.3,26.8c-4.5,11.3-7.2,23-7.2,35.2
		c0,0.6-0.1,1.3-0.1,1.9c0,4.5-0.2,9.1,0,13.6c0.1,3.3,0.6,6.7,1.2,10c0.5,2.8,1.1,5.6,2,8.4c0.7,2.3,2.3,4.1,4.7,4.7
		c3.4,0.9,5.3,3.2,6.6,6.4c1.5,3.5,3,7,4.8,10.4c5.1,9.7,10.3,19.4,17.1,28c2.9,3.6,5.8,7.2,8.7,10.9c3.9,4.8,7.5,9.8,11.6,14.3
		c6.1,6.7,12.4,13.4,19,19.6c9.6,9.1,20.1,17.4,31.1,24.8c6.4,4.3,12.9,8.3,19.6,12.1c8.7,4.8,17.8,8.8,27,12.4
		c8,3.1,16.3,5.5,24.8,7.3c11,2.3,22.1,3.4,33.3,3.4c10.3,0,20.4-1.5,30.4-3.9c23.2-5.6,43.8-16.5,62.4-31
		c9.8-7.6,19-15.9,28.3-24.1c12.1-10.7,24.1-21.5,34.6-33.8c8.1-9.5,16.4-18.8,23.6-29c6.7-9.6,12.9-19.5,17.9-30.1
		c3-6.4,5.6-13.1,7.3-20c2.9-11.9,3.7-23.8,1.4-35.9c-2.3-12.3-7.4-23.4-14.4-33.7c-3.6-5.4-7.2-10.8-11.1-16
		c-3.5-4.7-7.1-9.3-10.9-13.7c-4.4-5.1-9.3-9.7-13.7-14.8c-5.1-5.9-10.8-11.1-17.6-15c-3.1-1.8-4.8-4.3-5-7.9
		C515,214.7,514.9,210.2,514.8,207.6z M599.3,275.8c-1.1,2.5-2.3,4.3-4.2,5.4c-3,1.8-6.1,3.5-9.2,5c-1.7,0.9-2.1,1.4-1.5,3.1
		c0.4,1.2,0.9,2.4,1.4,3.6c1.8,3.8,3.7,7.5,5.4,11.2c6.3,13.8,8.7,28.2,7.3,43.2c-0.3,3.3-0.4,6.7-0.5,10.1c0,1.6,0.2,3.3,0.3,5.2
		c1.1-0.2,2-0.2,2.8-0.4c3.2-0.8,6.2-2.2,8.8-4.2c2.4-1.7,4.8-3.5,7.1-5.4c5.9-5,11.6-10.3,15.9-16.9c4.3-6.6,7.8-13.6,10.5-21
		c4.3-11.8,7.6-23.9,10.9-36c5.6-20.8,12.2-41.2,18.6-61.7c1.1-3.4,2-6.7,2.9-10.1c0.3-1,0.3-2.1,0.2-3.1c-0.3-2.3-1.5-3.8-3.8-4.5
		c-0.8-0.2-1.6-0.4-2.3-0.5c-5.4-0.1-10.9-0.6-16.3-0.3c-10.9,0.7-21.8,1.8-32.7,2.6c-8.8,0.7-17.4,2.6-25.6,5.9
		c-3.9,1.6-7.9,3-11.9,4.5c-5.7,2.1-11.4,4.3-17,6.4c-1,0.4-1.9,0.9-2.8,1.3c-0.9,0.4-1.2,1.1-0.7,2c0.6,1.2,1.3,2.4,2.1,3.4
		c7.7,9.6,17.4,15.9,29.8,17.6c2,0.3,3.9,1,6,1.5c-0.3,0.5-0.3,0.8-0.5,0.9c-0.3,0.4-0.7,0.7-1,1c-5.1,3.9-10.9,4.7-17,3.4
		c-2.2-0.5-4.4-1.3-6.7-1.3c0,0.2-0.1,0.3,0,0.4c0.1,0.2,0.2,0.4,0.4,0.6c5,5.9,11.5,9,19.2,9.7c4,0.3,7.7-0.9,11.5-2.1
		c1.2-0.4,2.4-0.7,4.1-1.2c-2,3.4-3.7,6.1-6.5,7.9c-3.5,2.3-7.2,3.8-11.3,4.2c-2.5,0.2-5,0.7-7.6,1c0,1.8,0.7,2.9,2.1,3.7
		c2.2,1.3,4.5,2,7,2.3C595.7,275,597.3,275.4,599.3,275.8z M190.4,223.2c-1.2-0.3-1.9-0.4-2.6-0.6c-4.3-0.7-8.7-1.5-13-2.2
		c-12.5-2-24.8-5-37.4-5.9c-6.6-0.5-13.2-1-19.8-1.2c-9.9-0.3-19.8,0.8-29.4,3.5c-2.3,0.6-4.5,1.7-6.6,2.7c-1.3,0.6-2,1.8-1.8,3.2
		c0.2,1.9,0.7,3.7,1.2,5.6c0.3,1.1,0.8,2.1,1.2,3.1c0.8,2.3,1.6,4.7,2.5,7c4.9,12.3,8.9,24.8,11.9,37.7c1.8,7.8,4.5,15.3,7.7,22.7
		c2.4,5.3,4.6,10.7,6.7,16.2c5.1,13.5,12.3,25.8,21.9,36.6c2.7,3.1,5.8,5.7,9.3,7.9c2.8,1.7,5.4,3.7,8.3,5.3
		c4.4,2.5,8.8,4.8,13.3,7.1c1.2,0.6,2.5,0.9,3.8,1.3c1-1.3,0.8-2.5,0.6-3.8c-1.1-6.2-2.4-12.4-3.4-18.6c-1.8-10.7-0.6-21.2,2.1-31.6
		c1-3.9,2.1-7.9,3-11.8c0.5-2.1,0.2-2.3-1.9-2.7c-4.7-1.1-9.6-1.8-14.1-3.8c-1.9-0.9-3.7-1.9-5.4-3c-1.3-0.8-1.3-1.5-0.4-2.8
		c0.7-1,1.7-1.4,2.8-1.6c4.7-1.1,9.2-2.6,13.6-4.7c1.8-0.9,3.4-2,5.1-3.1c0.5-0.3,0.7-0.9,1-1.5c-2.2-1.4-4.3-1.9-6.5-2.3
		c-3.1-0.7-6.2-1.5-9.3-2.4c-2.3-0.7-3.9-2.3-5.1-4.8c1.4-0.6,2.4-1.2,3.6-1.5c5.6-1.5,11-3.4,16-6.3c2.5-1.4,4.8-3.2,6.3-5.8
		c1.2-1.9,1-2.7-1.1-3.8c-2.8-1.4-5.7-2.8-8.6-4.3c-3.6-1.8-6.6-4.2-8.1-8.1c-0.8-2.2-0.4-2.8,1.8-3c1.8-0.2,3.6-0.4,5.5-0.6
		c4.4-0.5,8.7-1.4,12.5-3.7c4.4-2.7,8.1-6.3,11.2-10.4C189.4,226,189.7,224.7,190.4,223.2z M427.9,122.3c0.2-0.8,0.3-1.4,0.5-2
		c0.7-1.9,1.5-3.7,2.2-5.6c0.7-1.9,0.4-2.6-1.6-2.6c-1.6,0-3.2-0.1-4.8,0.2c-9.9,1.8-19,5.4-27.2,11.4c-1.4,1-3,1.8-4.5,2.7
		c-0.6,0.3-1.3,0.4-2,0.6c-0.4-2,0-3.6,0.7-5.1c1.8-3.9,3.8-7.8,5.7-11.6c0.7-1.3,1.5-2.6,1.5-4.3c-0.6,0-1.1-0.1-1.5-0.1
		c-2.7,0-5.2,0.7-7.6,1.8c-5.5,2.5-10.5,5.7-15.6,8.9c-2.2,1.4-4.6,2.5-7,3.6c-0.6,0.3-1.7,0.4-2,0.1c-0.4-0.5-0.6-1.5-0.4-2.2
		c1.1-3.4,2.2-6.8,3.4-10.2c0.5-1.4,1.1-2.6,0.5-4.3c-1.5,0.6-3.1,1.1-4.5,1.9c-6.8,3.7-13.1,8-17.9,14.2c-2.2,2.7-5.1,4.3-8.6,4.9
		c-1.5,0.3-1.8,0.1-2-1.5c-0.2-2.1-0.2-4.2-0.5-6.2c-0.3-2-0.7-4.1-1.4-6c-0.6-1.8-1.5-2.2-3.3-1.9c-1.3,0.3-2.7,0.7-3.8,1.4
		c-2.2,1.5-4.2,3.2-6.2,4.9c-1.2,1-1.8,2.4-2,4.1c0.6-0.2,1-0.2,1.3-0.4c2.2-0.6,4.4-1.3,6.7-1.9c1.7-0.5,2.3-0.2,2.9,1.5
		c0.3,0.8,0.4,1.7,0.7,2.5c1,2.9,1.8,5.8,3,8.5c1.5,3.1,4.1,3.9,7.2,2.3c1.5-0.8,2.9-1.9,4.2-3.1c3.6-3.1,7-6.3,10.6-9.4
		c0.6-0.6,1.4-1,2.3-1.5c0.3,0.7,0.7,1.1,0.8,1.6c0.2,1.6,0.3,3.2,0.4,4.8c0.2,2.4,0,4.8,0.5,7.1c0.8,3.9,2.6,4.7,7,2.9
		c0.3-0.1,0.6-0.3,0.8-0.5c1.5-1.3,3.1-2.5,4.6-3.8c3.6-3.2,7.1-6.4,10.7-9.6c0.6-0.5,1.4-0.8,2.6-1.3c-0.2,1.4-0.2,2.3-0.3,3.1
		c-0.7,4.2-1,8.4-0.8,12.7c0.1,2.4,1.8,3.4,3.9,2.6c1.5-0.6,3-1.4,4.4-2.4c3.8-2.6,7.4-5.3,11.2-7.8c3.5-2.3,7-4.4,10.6-6.5
		c1.8-1,3.8-1.5,6-2.4c-0.2,0.9-0.2,1.4-0.3,1.8c-0.7,2.1-1.5,4.1-2,6.1c-0.5,1.8-0.9,3.6-1,5.4c-0.1,1.9,0.6,2.4,2.3,2
		c2.2-0.5,4.3-1.1,6.5-1.8c0.7-0.2,1.3-0.5,2-0.9c6.2-3.5,12.8-5.1,19.9-5.7c2.6-0.2,5.3-0.6,7.8-1.8c-1.1-0.7-2.2-1.4-3.4-1.6
		c-2.2-0.3-4.5-0.5-6.7-0.4c-4.9,0.2-9.7,0.7-14.6,1.1C429.3,122.3,428.7,122.3,427.9,122.3z M550.2,328.6c0.5-1.1,1.2-1,2-0.8
		c5.2,1.1,9.6,3.6,12.4,8.3c2.8,4.6,4,9.6,3.2,14.9c-0.2,1.4-0.5,3.1-2.2,3.4c-1.5,0.3-2.7-0.8-3.6-1.9c-0.2-0.2-0.3-0.5-0.5-0.8
		c-1.1-1.6-1.9-2-3.6-1.1c-1.9,1-3.9,2-5.6,3.3c-7.4,5.6-15.5,9.9-23.6,14.2c-5.3,2.7-9.2,6.7-12.4,11.6
		c-5.7,8.9-11.8,17.7-17.9,26.4c-7.5,10.9-15.9,21-24.7,30.9c-7.9,8.9-16.1,17.6-26,24.4c-14.2,9.8-29.6,17.1-46.6,20.6
		c-11,2.2-22.1,3.5-33.4,3c-6.9-0.3-13.8-0.8-20.5-1.8c-6.6-1-13.1-2.5-19.5-4.7c-9-3.1-17.1-7.9-25.1-12.9c-1.5-0.9-2.9-2-4.4-2.9
		c-9.2-5.3-17.3-12-24.9-19.4c-8-7.8-15.4-16.3-22.4-25c-7.8-9.7-15.6-19.3-22.6-29.5c-2.1-3.1-4.2-6.2-6.3-9.4
		c-1.3-2.1-3-3.7-5.2-4.9c-5.3-2.9-10.5-5.8-15.7-8.7c-1.9-1-3.8-1.9-6-3.1c-0.2,3.6-0.4,7-0.6,10.3c-2.7,0.2-5.2-1.6-6.2-4.2
		c-1-2.9-1.2-5.8-0.8-8.8c0.8-5.7,2.6-11,5.2-16.1c1.1-2.1,1.9-2.6,3-2.1c1.6,0.7,1.1,2.2,1,3.4c-0.1,1-0.4,2-0.7,3
		c-1.8,4.8-1.1,7.3,3.3,10c5.1,3,10.2,6,15.6,8.5c13.6,6.2,27.8,10.4,42.3,13.7c13.8,3.1,27.7,5.5,41.8,7.2
		c9.9,1.2,19.9,2.1,29.8,3.1c2.4,0.2,4.8,0.3,7.2,0.4c0.4-1.4-0.3-2.3-1-3.1c-2.9-3.3-5.9-6.5-8.8-9.8c-0.7-0.8-1.5-1.5-2.2-2.2
		c-4.8-4.9-6.1-10.9-4.8-17.5c2.1-10.7,4.3-21.5,6.5-32.2c5.6-27.1,11.8-54,20.6-80.3c3-8.9,6.6-17.7,9.9-26.5
		c1.6-4.1,1.5-4.4-2.8-4.4c-14.9-0.1-27.8-6-40-13.9c-7.3-4.8-14.6-9.6-21.8-14.4c-1.7-1.1-3.5-1.1-5.3-0.3c-2,0.9-4.1,1.9-6,3
		c-8.7,4.8-17.9,8-27.5,10.2c-1.7,0.4-3.5,0.2-5.3,0.3c-0.3-1.8,0.6-3,1.4-4.1c2.4-3.1,4.8-6.2,7.3-9.2c2.6-3.1,5.3-6.2,8.1-9.2
		c4-4.4,7.8-8.9,11.1-13.8c0.4-0.5,0.7-1,1.2-1.5c2.3-2.6,5-3.4,8.2-2.2c1.6,0.6,3.1,1.3,4.5,2.2c3.6,2.6,7.1,5.4,10.7,8.1
		c2.7,2,5.3,4,8.1,5.9c7.4,5,14.7,9.9,22.2,14.7c8.1,5.2,16.6,9.5,25.6,13c3.4,1.3,6.5,0.7,9.2-1.7c1.1-1,2.1-2.2,3.2-3.2
		c1.4-1.3,2.5-1.6,4.1-0.5c1.2,0.8,2.3,2,3.1,3.2c1.7,2.7,2.8,3.4,5.7,2.1c4.9-2.1,9.9-4.2,14.5-6.9c11.4-6.5,22.5-13.5,32.6-22
		c6.8-5.7,13.8-11.2,20.7-16.7c3.2-2.6,5.4-2.8,9-0.5c1.7,1.1,3.3,2.3,4.9,3.5c4.5,3.6,8.9,7.3,13.5,10.8c3.2,2.4,6.5,4.6,9.8,6.9
		c2.2,1.5,4.3,3,6.5,4.5c1,0.7,2,1.2,3.1,1.8c1.1,0.6,2.1,1.2,2.3,2.8c-0.5,0.2-1,0.6-1.6,0.7c-4.2,1-8.4,0.9-12.6,0.3
		c-8.6-1.2-17-3.3-24.7-7.2c-2.7-1.4-5.3-1.4-8,0c-1.1,0.6-2.3,1.2-3.3,1.9c-2.2,1.5-4.4,3-6.5,4.6c-9.8,7.4-20.4,13.5-31.4,18.9
		c-5.9,2.9-12.1,5-18.5,6.6c-2.2,0.6-4.4,1.4-6.7,2.1c-0.1,2.3,0.4,4.4,1.2,6.4c1.1,2.7,2.3,5.4,3.6,8.1
		c6.2,12.7,10.9,25.9,15.8,39.1c4.7,12.5,8.8,25.2,12.4,38c3.2,11.3,5.9,22.7,8.7,34.1c1.5,6.1,2.6,12.2,4,18.3
		c1.2,5.3,0,10-3.3,14.2c-3,3.8-6,7.5-8.9,11.3c-0.6,0.7-1,1.5-1.8,2.7c1.7,0,2.9,0.1,4,0c5.3-0.6,10.7-1.2,15.9-2
		c21.4-3.4,42.5-8,63.4-13.7c10.2-2.8,19.9-7,29.4-11.7c6.6-3.3,13.2-6.6,19.1-11c2.8-2.1,5.5-4.3,8.2-6.7c1.9-1.7,2.1-3.2,0.8-5.4
		c-1-1.8-2.4-3.4-3.7-5C552.4,331.5,551,330.2,550.2,328.6z M371.9,204c-2.2-0.4-3.8,0.3-4.8,2.3c-2,3.8-4.3,7.5-5.9,11.5
		c-7.4,17.9-12.8,36.5-17.9,55.1c-4.9,17.8-9.1,35.8-13,53.8c-1.9,8.9-3.8,17.8-5.7,26.7c-0.5,2.2-0.6,4.4-0.9,6.6
		c-0.1,1.3-0.4,2.6-0.3,3.8c0.4,3.8,1.5,7.4,4.1,10.3c1.5,1.7,3.1,3.5,4.8,5c6.1,5.3,11.6,11.2,17.2,17c4.6,4.7,9.1,9.5,13.7,14.1
		c1.6,1.6,3.3,3.1,5.2,4.3c3.4,2.2,7.1,2.6,10.6,0.2c2.2-1.5,4.4-3.2,6.4-5c2-1.7,3.7-3.7,5.6-5.6c8.4-8.1,16.9-16.1,25.3-24.2
		c1.5-1.4,2.9-3,4.3-4.5c2-2.2,3.3-4.7,3.9-7.6c1.1-4.7,0.6-9.4-0.3-14c-2.8-13.5-6.2-26.8-10-40c-6.5-22.1-13.8-43.9-22.3-65.3
		C385.9,233.5,379.5,218.5,371.9,204z M334.7,404.4c-2.2,0.2-4.6,0.3-6.9,0.6c-1.5,0.2-1.8,0.7-1.3,2.1c0.6,1.8,1.1,3.7,1.9,5.4
		c3.7,8,8.8,15,14.2,21.9c4.1,5.3,8.3,10.6,12.5,15.8c2.3,2.9,4.5,6,7.1,8.7c2,2.1,4.3,3.8,6.6,5.4c2.6,1.8,5.5,1.5,8.1-0.3
		c1.4-0.9,2.6-2.1,3.7-3.3c13.9-15.2,26.3-31.6,37.8-48.6c1.4-2.1,2.6-4.4,3.6-6.7c0.9-2,0.1-3.1-2-3.4c-4.9-0.8-9.6-0.1-13.7,2.8
		c-2.2,1.6-4.3,3.3-6.4,5.1c-5.1,4.3-10,8.7-15.1,13c-1,0.9-2.2,1.6-3.3,2.3c-3.5,2.2-7.3,2.4-11,0.5c-2.1-1.1-4.1-2.5-6-3.9
		c-4.7-3.8-9.2-7.9-13.1-12.6c-2.1-2.5-4.7-4-8-4.2C340.7,404.8,337.8,404.6,334.7,404.4z M453.3,389.7c-0.3,0.1-0.7,0.1-1.1,0.2
		c-5.3,1-10.6,2-16,3c-3.1,0.6-4.1,1.7-3.3,4.7c0.7,2.8,1.8,5.6,2.8,8.3c1.4,3.4,3,4,6.4,2.7c0.4-0.1,0.7-0.3,1.1-0.5
		c6.2-3.8,10.1-9.4,11.7-16.5C455.4,390.1,454.9,389.6,453.3,389.7z M313.1,401.8c0.1-4-0.2-4.4-3-4.8c-3.9-0.6-7.9-1.1-11.9-1.6
		c-1.3-0.2-2.6-0.4-3.8-0.3c-2.6,0.2-3.1,0.9-1.9,3.2c1.6,3.1,3.3,6,5.1,8.9c1,1.6,2.3,3.1,3.6,4.5c1.4,1.6,3.3,2.5,5.3,3
		c1.4,0.4,2.6,0,3.3-1.2c0.8-1.4,1.7-2.8,2-4.3C312.6,406.5,312.9,403.6,313.1,401.8z M445.3,209.9c2.6,0.2,5.2,0.3,7.9,0.5
		c16.1,1,34.8,11.4,42.4,29.1c3.1,7.3,5.1,14.6,4.8,22.5c-0.1,2.4,0.6,4.2,2.9,5.2c0.1,0,0.1,0.1,0.2,0.1c0.8,0.6,1.9,1.1,1.7,2.4
		c-0.3,1.4-1.5,1.6-2.6,1.6c-3,0.2-5.1,1.8-6.6,4.2c-8.1,12.9-20.2,18.9-35,20c-17,1.2-31.6-4.3-43.7-16.3c-4.4-4.4-8-9.5-11-15.1
		c-2.6-4.9-3.6-10.2-3.4-15.8c0-0.4,0-0.8,0-1.4c-1.2,0.1-2.3,0.4-3.2-0.7c-0.9-1.2-1.5-2.4-1.6-3.9c-0.2-3.3,0.6-6.3,2.1-9.2
		c5.8-11.2,14.2-20.1,25.2-26.3c8.1-4.6,16.9-6.9,26.3-7.6c10.7-0.8,21.1,0.9,30.8,5.4c14.6,6.7,24.9,17.5,31,32.5
		c3.5,8.8,4.8,17.9,4.3,27.2c-0.7,11.9-4.1,23-11.1,32.7c-8.7,12.1-20.1,20.4-34.9,23.7c-7.1,1.6-14.2,1.9-21.4,1.6
		c-5.4-0.2-10.4-1.6-15.4-3.2c-4-1.2-7.4-3.5-10.6-6c-1.7-1.4-3-3.1-3.4-5.3c-0.5-2.4,0.5-3.6,3-3.7c2-0.1,3.7,0.7,5.4,1.7
		c27.4,16.4,61.7,3.7,74.4-22.1c1.4-2.8,2.2-5.8,3.1-8.8c0.6-1.8,1-3.7,1.4-5.6c1.3-5.5,1.2-11.1,0.4-16.7
		c-1.4-9.3-4.8-17.9-11.1-25.1c-6.9-7.9-15.2-13.8-25.5-16.8c-1.7-0.5-3.3-1.3-5-1.7c-2.2-0.5-4.4-0.8-6.6-0.9
		c-4.3-0.1-8.6,0.1-12.9,0.3c-0.7,0-1.4,0.5-2.1,0.7C445.3,209.5,445.3,209.7,445.3,209.9z M494.5,271.6c-0.9-1.2-2-1.2-3.1-0.9
		c-3.6,0.8-7.2,1.6-10.7,2.5c-10.2,2.4-20.5,3.5-30.9,1.7c-13.2-2.2-25.1-7.1-35.3-16.1c-1.7-1.5-3.6-3-5.4-4.4
		c-0.4-0.3-0.9-0.6-1.5-1c-0.7,2.9-0.1,5.6,0.5,8.2c0.9,4.5,3.4,8.1,6.1,11.5c6.1,7.6,14.2,12.4,23.1,15.7c6.4,2.4,13.2,3.3,20,3.1
		c2.3-0.1,4.6-0.5,6.9-0.7c8.6-0.8,16.3-3.7,22.7-9.7c1.1-1,2.1-2.2,3.3-3.1C492.4,276.6,493.7,274.4,494.5,271.6z M409.2,236.9
		c0.1,0.2,0.2,0.3,0.3,0.5c1.4-0.6,2.8-1.1,4.1-1.8c8.6-4.5,17.5-8.2,27.3-9.1c9.3-0.8,18,1.1,25.8,6.1c6.1,4,11.3,9.1,15.2,15.4
		c2.4,3.9,5.3,7.6,8.1,11.3c0.9,1.2,2,2.3,3.2,3.3c1.8,1.6,2.7,1.2,3.3-1c0.9-3.1,0.3-6.2,0-9.3c-0.5-4.8-1.5-9.5-4.1-13.7
		c-4.8-7.9-11.3-14-19.6-18.2c-10.9-5.5-22.4-7.4-34.4-5.1c-8.8,1.6-16.6,5.2-22.5,12.1c-1,1.2-2.2,2.3-3.3,3.5
		C411,232.7,409.9,234.8,409.2,236.9z M454.5,237.5c1,1.7,1.9,3.3,2.7,4.9c0.9,1.7,2,3.3,2.6,5.1c2.1,6.2,0.4,11-5,14.5
		c-1.7,1.1-3.5,1.9-5.3,2.8c-0.9,0.5-2,0.7-2.9,1.2c-0.6,0.3-1.3,1-1.2,1.5c0.1,0.6,0.8,1.2,1.3,1.7c0.3,0.2,0.7,0.3,1.1,0.3
		c4.6,0.5,9.2,1.1,13.8,1.5c6.2,0.5,12.5,0.5,18.6-1c1.6-0.4,3.3-0.9,4.8-1.5c2.4-1,2.6-2.5,0.9-4.5c-0.6-0.7-1.4-1.3-2.1-2
		c-1.4-1.4-3-2.7-4.3-4.2c-3.2-3.8-6.4-7.6-9.5-11.4c-3.2-4-7-7.2-11.9-9C457.1,236.9,456,236.6,454.5,237.5z M427.6,237
		c-0.6-0.2-1-0.4-1.4-0.3c-2.1,0.5-4.2,0.8-6.2,1.6c-2.1,0.8-4,2.1-5.9,3.2c-2.7,1.6-3.2,3.2-1.8,6c2.8,5.6,7.4,9.6,12.3,13.2
		c0.4,0.3,0.9,0.5,1.3,0.6c1.3,0.3,2.1-0.5,1.7-1.8c-0.3-1.1-0.8-2.1-1.4-3c-1.9-3.5-2.9-7.1-1.5-11c0.7-2,1.4-4.1,2.1-6.1
		C427.1,238.6,427.3,237.8,427.6,237z M235.4,278.8c0.2-0.3,0.3-0.7,0.6-0.9c3.1-2.5,3.5-5.9,3.7-9.5c0.1-2.4,0-4.8,0-7.2
		c-0.1-4.2,0.7-8.3,2.3-12.2c6.9-17,19-28.3,36.8-33.3c7.5-2.1,15.1-2.8,22.8-1.5c3.6,0.6,7,1.8,10.1,3.5c6.6,3.6,12.4,8.2,17,14.2
		c5.9,7.6,8.1,16,6.9,25.6c-1.1,8.3-4,15.7-9.5,21.9C317,289.7,306,297,292.5,300c-12.5,2.8-24.4,0.5-35.7-5.5c-3.8-2-7-4.7-9.6-8.2
		c-2.8-3.7-6.4-5.9-10.9-7c-0.2-0.1-0.4-0.2-0.7-0.2C235.6,279,235.6,279,235.4,278.8z M328.1,241c-0.5-3-1.4-5.3-2.8-7.4
		c-2.2-3.3-5.1-5.7-8.4-7.8c-9.7-6.1-20.4-8-31.6-6.4c-15.5,2.1-27.9,9.7-37,22.5c-2.4,3.4-4,7.1-4.9,11.1
		c-1.2,5.8-1.3,11.7-1.1,17.7c0,0.3,0.2,0.6,0.4,0.8c2.4,0,4.2-1.1,5.5-3c0.7-1.1,1.4-2.2,2-3.3c4.2-6.8,8.3-13.7,13.5-19.8
		c6-7.2,13.9-11.5,22.8-13.7c11.8-2.9,23.2-1.5,33.7,4.9c1.7,1,3.5,2,5.2,3C326.2,240.1,326.9,240.4,328.1,241z M331.1,259.2
		c-2.1,1.2-3.3,2.8-4.5,4.4c-3.6,4.8-8.4,7.9-14.1,9.8c-7.8,2.6-15.9,4.3-24,5.6c-8.1,1.3-16.3,2.1-24.6,1c-2.9-0.4-5.9-0.8-8.8-1.2
		c-1.5-0.2-3-0.4-4.5-0.4c-0.8,0-1.9,0.3-2.2,0.9c-0.3,0.6,0.1,1.6,0.3,2.4c0.1,0.4,0.4,0.7,0.6,1c2.2,3.2,5,5.5,8.5,7.2
		c11.7,5.8,24,7.2,36.7,4.7c15.1-2.9,26.2-11.6,33.8-24.9C330,266.8,330.9,263.2,331.1,259.2z M282.6,243.5c-1.1-1.2-2-0.7-2.9-0.3
		c-3.8,1.5-7.1,3.7-9.8,6.7c-1.6,1.9-3.2,3.8-4.8,5.7c-4.1,5.2-8.1,10.5-13.1,15c-0.3,0.3-0.6,0.6-0.8,0.9c-0.8,1.2-0.8,2.3,0.5,3.1
		c1.1,0.7,2.4,1.4,3.7,1.6c3.9,0.6,7.9,1.3,11.9,1.3c5.4,0,10.8-0.6,16.3-1c2.2-0.2,4.4-0.5,6.6-0.9c1.6-0.2,2.4-1,2.5-2.4
		c0.1-1.4-1-1.7-2-2c-1.7-0.6-3.5-1-5.2-1.8c-1.4-0.6-2.8-1.3-3.9-2.3c-5.3-4.6-6.3-12.2-2.4-17.5
		C280.7,247.8,281.5,245.5,282.6,243.5z M309.9,266.3c0.2,0.2,0.4,0.4,0.5,0.6c1.3-0.6,2.7-0.9,3.8-1.8c4.7-3.5,8.6-7.6,11.2-12.9
		c1.4-2.8,1.2-4.1-1.5-5.6c-3.4-1.9-7-3.4-10.6-5c-0.3-0.1-0.6-0.2-0.9-0.2c-1.7-0.1-2.7,1-2.4,2.7c0.2,0.8,0.6,1.6,1.1,2.4
		c2.7,4.4,3.5,8.9,1.2,13.6c-0.5,1.1-1,2.2-1.5,3.3C310.4,264.4,310.2,265.4,309.9,266.3z M365.2,274.7c-1.1,1.9-1.7,4-2.2,6.2
		c-1.8,8.7-2.5,17.6-2.8,26.4c-0.2,5.4-0.1,10.9-0.1,16.3c0,6.6-0.1,13.1,0.3,19.6c0.6,10.1,1.4,20.3,2.2,30.4
		c0.5,6.4,1.2,12.7,2.1,19.1c0.2,1.9,1.2,3.7,1.9,5.8c1.5-1.5,1.5-3,1.4-4.5c-0.3-7.1-0.7-14.2-1.1-21.3c-0.3-6.1-0.9-12.1-1.1-18.2
		c-0.5-12-0.9-24-1.2-35.9c-0.1-4.9,0.1-9.7,0.2-14.6c0.1-4.1,0.4-8.3,0.6-12.4c0.3-4.7,0.6-9.4,0.8-14.1c0-0.8-0.2-1.7-0.3-2.5
		C365.7,274.7,365.5,274.7,365.2,274.7z"/>
</g>
</svg>
